# xmcd
#
# Track frame offsets: 
#        150
#        39149
#        68625
#        94404
#        122202
#
# Disc length: 1911 seconds
#
# Revision: 0
# Processed by: cddbd v1.5.2PL0 Copyright (c) Steve Scherf et al.
# Submitted via: ExactAudioCopy v1.0b3
#
DISCID=3b077505
DTITLE=Juice Oh Yeah - Sila Vselennoy
DYEAR=2013
DGENRE=Doom Rock
TTITLE0=Kozha
TTITLE1=Spat'
TTITLE2=Krug
TTITLE3=Kozha Slona
TTITLE4=Poslednaya
EXTD=
EXTT0=
EXTT1=
EXTT2=
EXTT3=
EXTT4=
PLAYORDER=
